<?xml version="1.0" encoding="UTF-8" standalone="no"?>
<!-- Created with Inkscape (http://www.inkscape.org/) -->

<svg
   width="32mm"
   height="32mm"
   viewBox="0 0 32 32"
   version="1.1"
   id="svg5"
   inkscape:version="1.2.2 (b0a8486541, 2022-12-01)"
   sodipodi:docname="mute.svg"
   xmlns:inkscape="http://www.inkscape.org/namespaces/inkscape"
   xmlns:sodipodi="http://sodipodi.sourceforge.net/DTD/sodipodi-0.dtd"
   xmlns="http://www.w3.org/2000/svg"
   xmlns:svg="http://www.w3.org/2000/svg">
  <sodipodi:namedview
     id="namedview7"
     pagecolor="#ffffff"
     bordercolor="#000000"
     borderopacity="0.25"
     inkscape:showpageshadow="2"
     inkscape:pageopacity="0"
     inkscape:pagecheckerboard="true"
     inkscape:deskcolor="#d1d1d1"
     inkscape:document-units="mm"
     showgrid="false"
     inkscape:zoom="2.7331369"
     inkscape:cx="73.90775"
     inkscape:cy="89.091768"
     inkscape:window-width="1920"
     inkscape:window-height="1003"
     inkscape:window-x="0"
     inkscape:window-y="0"
     inkscape:window-maximized="1"
     inkscape:current-layer="layer1" />
  <defs
     id="defs2" />
  <g
     inkscape:label="Layer 1"
     inkscape:groupmode="layer"
     id="layer1">
    <circle
       style="fill:#ffffff;stroke-width:0.451762"
       id="path111"
       cx="16"
       cy="16"
       r="16" />
    <rect
       style="fill:#ffffff;stroke-width:0.296271"
       id="rect271"
       width="10"
       height="10"
       x="-31.143087"
       y="37.973183"
       ry="3.024801" />
    <path
       id="path426"
       style="fill:#ffffff;stroke-width:0.264583"
       d="m 3.9763886,51.200787 c 11.0630284,-11.063028 11.0630284,-4.582456 0,-15.645485 -24.5582536,-10.657117 -17.8843186,33.877122 0,15.645485 z"
       sodipodi:nodetypes="ccc" />
    <path
       style="fill:#888a85;stroke-width:0.0890409"
       d="M 21.507161,4.1141647 C 21.203623,3.9493514 20.834105,3.963865 20.544367,4.1520084 L 12.07333,9.6539043 H 8.9423137 C 8.4218734,9.6539043 8,10.075778 8,10.59613 v 8.256537 c 0,0.520442 0.4218734,0.942315 0.9423137,0.942315 H 12.07333 l 8.471037,5.501807 c 0.155644,0.10106 0.334258,0.152081 0.513318,0.152081 0.154307,0 0.30906,-0.03793 0.449566,-0.114239 C 21.810878,25.169726 22,24.85203 22,24.506464 V 4.9424187 c -8.8e-5,-0.3454763 -0.189211,-0.663439 -0.492839,-0.828254 z"
       id="path476" />
  </g>
</svg>
